<svg width="125" height="125" viewBox="0 0 125 125" fill="none" xmlns="http://www.w3.org/2000/svg">
<path d="M71.2562 75.1707L71.4887 67.4412L70.8937 57.7475L63.07 14.7243C63.07 14.7243 61.3477 9.7596 58.0536 9.00834C54.7596 8.25709 46.0633 10.5948 46.0633 10.5948L42.9525 14.7089L43.1039 21.3275L51.5079 64.9562L57.0562 78.7467L71.2562 75.1707Z" fill="url(#paint0_linear_6_31)"/>
<path d="M51.6103 21.8094C55.7049 24.7041 61.3247 23.7967 64.1626 19.7825C67.0005 15.7684 65.9818 10.1676 61.8872 7.27289C57.7927 4.37815 52.1728 5.2856 49.3349 9.29974C46.497 13.3139 47.5158 18.9146 51.6103 21.8094Z" fill="url(#paint1_radial_6_31)"/>
<path d="M62.2893 94.5303L73.0906 93.4855L75.7264 110.542L78.5244 111.14L79.1515 113.952L77.5708 116.188L66.3969 117.759L63.8878 116.184L63.5285 113.562L65.3262 111.873L62.2893 94.5303Z" fill="url(#paint2_linear_6_31)"/>
<path d="M67.8533 87.4551L67.7046 88.7832L71.9124 82.8L74.0367 89.3183L65.6851 88.6856L64.0767 83.3995L71.4691 83.6861L73.8371 89.9318C73.8371 89.9318 71.1794 92.8312 70.6652 93.3845C69.6076 94.5224 73.9642 88.1375 73.9642 88.1375L69.8063 86.3275L73.7884 85.2207L74.1401 91.0543L70.7793 78.6012L71.686 77.9817L72.6034 78.9378L73.513 80.6789L74.3646 94.7691L70.199 87.0669L71.0984 84.4999L69.8081 85.1685L74.3646 94.7691C74.466 95.3943 74.5729 96.0204 74.6839 96.6406L77.0997 109.912C77.7068 109.981 78.2906 110.201 78.8039 110.564C79.593 111.122 80.1224 111.949 80.2941 112.893C80.7178 115.232 79.1538 117.444 76.8096 117.826L67.7418 119.289C66.6035 119.472 65.453 119.204 64.5029 118.532C63.5548 117.862 62.9197 116.868 62.7134 115.734C62.5416 114.789 62.7464 113.842 63.2933 113.068C63.6491 112.565 64.1218 112.174 64.6701 111.92L62.2577 98.6471C62.1019 97.7999 61.9338 96.9529 61.7561 96.111L63.4597 100.992C63.2207 101.018 60.9339 93.4488 60.9339 93.4488L60.2587 91.4023L60.1449 90.367L60.1409 90.3641C59.9389 90.2184 59.7921 89.9991 59.7445 89.7376L58.6207 86.4712L56.608 79.1466C56.5148 78.6249 58.7819 81.7585 58.7819 81.7585L56.608 79.1466L61.7233 96.1145C61.6425 95.9213 55.8376 77.0449 55.7483 76.8338C55.5925 76.4691 55.4383 76.0936 55.2828 75.7114C53.396 76.4287 51.4038 76.7014 49.4444 76.5563L49.8729 77.6584L48.0481 78.3306L47.2786 76.3571L45.544 77.2263L44.6378 75.4846L44.8114 75.3971C43.97 75.0243 43.1587 74.5661 42.3957 74.0268C41.51 73.4006 40.6868 72.6647 39.9497 71.8239L39.3073 71.0886L40.7758 69.827L41.4183 70.5624C42.7778 72.1155 44.4801 73.2479 46.3307 73.9228L45.9131 72.8522L47.7414 72.1794L48.3094 73.6435L49.3959 73.0975L50.2036 74.6453C51.6732 74.672 53.1511 74.4263 54.5616 73.8874C53.7891 71.8969 53.0741 69.8848 52.4389 67.8878C52.0642 67.7175 51.6923 67.5346 51.3269 67.3384C51.1324 67.2334 50.9482 67.1181 50.7711 66.9928C49.6599 66.2072 48.884 65.0371 48.6073 63.699C48.2862 62.146 48.6739 60.5643 49.6712 59.3543L50.0019 58.9548C49.8278 58.1805 49.6598 57.4017 49.5021 56.6213L49.3099 56.5387C48.9436 56.3863 48.5998 56.1936 48.2858 55.9716C47.6195 55.5005 47.0781 54.8869 46.6974 54.1827L45.733 55.3803L44.1978 54.144L45.619 52.3814L43.6067 50.3638L44.9859 49.0065L46.2641 50.286C46.5405 49.3271 47.0984 48.4696 47.8809 47.824L47.5993 46.2664L45.1932 45.3438C44.4751 45.0699 43.8017 44.7241 43.1797 44.3228L43.1808 44.3384L41.2453 44.595L41.069 43.4522L39.9847 43.9909L39.0785 42.2492L40.3041 41.6387C38.9464 39.7968 38.1969 37.5473 38.2287 35.2049L37.7407 35.8781L36.3456 34.4863L37.1921 33.4598L36.3248 33.2047L36.8467 31.3391L38.605 31.854C38.6972 29.4774 37.7945 27.1372 36.0619 25.3944L37.4451 24.04C39.1376 25.7456 40.1834 27.9175 40.4837 30.2046L40.5044 30.1838L41.8995 31.5756L40.9285 32.5348L41.4754 32.6964L40.9535 34.5621L40.2531 34.357C40.0585 35.9776 40.3312 37.5733 40.9857 38.992L42.3373 38.814L42.5942 40.4962L43.3966 40.0957L44.3014 41.8393L43.5456 42.2166C44.2331 42.7559 45.0106 43.202 45.8685 43.5303L47.192 44.0368L46.7639 41.683L46.5946 41.6107C46.2283 41.4583 45.8845 41.2656 45.5705 41.0435C44.3084 40.1512 43.4904 38.7502 43.3675 37.1774C43.2355 35.5065 43.9139 33.932 45.1656 32.896L43.7057 24.8699C43.3335 24.7429 42.9834 24.5634 42.6674 24.34C41.9709 23.8476 41.4333 23.139 41.1544 22.2907C40.6656 20.8085 41.0619 19.2359 42.1915 18.1846L42.4618 17.9347C42.1846 15.6876 42.7362 13.464 44.0407 11.6188C45.4484 9.6276 47.5622 8.31605 49.9956 7.92312L54.1842 7.24677C59.0204 6.46586 63.6746 9.60229 64.8211 14.305C66.4844 15.0784 67.6218 16.6254 67.8337 18.4652C68.0185 20.0699 67.4649 21.5876 66.36 22.6593L67.5573 29.2419C68.5337 29.7014 69.3266 30.4247 69.8561 31.3199L70.9106 30.0291L72.4416 31.2713L70.9672 33.0792L72.3555 34.0963L71.2474 35.6807L70.4644 35.0887C70.2568 36.04 69.7789 36.9038 69.0753 37.5873L70.5938 45.9361C71.972 46.3185 73.0981 47.2922 73.6731 48.6311C74.329 50.1632 74.1315 51.8646 73.1425 53.1781L72.0937 54.5677C72.4228 56.8012 72.6761 59.0521 72.855 61.2801C74.2003 60.5944 75.7019 60.2767 77.2405 60.3552L76.8661 59.2322L78.7253 58.6522L79.1467 59.9181L79.7543 59.507L80.8796 61.1224L80.7062 61.2396C82.5011 62.1001 83.9654 63.5349 84.8698 65.373L83.1122 66.2023C82.4706 64.8933 81.4634 63.8497 80.2287 63.1663L80.5128 64.0242L78.6536 64.6041L78.1188 62.9947L77.1224 63.6696L76.182 62.318C75.0437 62.4249 73.9573 62.8171 73.0116 63.4715C73.2244 66.9755 73.2611 70.5236 73.1124 74.0265C73.1111 74.0966 74.3659 94.699 74.3646 94.7691L65.6722 84.3082L70.8742 78.5777L71.5305 78.6834L70.3443 77.8448L71.3809 77.861L72.2946 78.1195L71.9222 79.9467L73.7827 84.8389L74.0321 89.241L73.4979 91.4456C73.4979 91.4456 69.628 78.8248 73.1482 79.0155L74.0367 89.3183L65.671 88.2316L67.7071 84.1268L73.5701 81.6199L72.9457 81.8869L73.8768 84.1888L70.6483 83.9801C70.6483 83.9801 73.9165 89.5292 73.8371 89.9318L65.8507 88.1219L65.671 88.2316L63.0937 84.4485L65.024 86.8881L66.7842 87.8121L66.7643 86.6851L65.201 86.1207L66.0813 88.2849L66.0192 87.739L67.5492 87.8853C68.0688 87.936 68.6895 82.809 68.6767 83.3268L68.5395 82.6909L67.9224 93.0472C67.9224 93.0472 65.9492 82.1131 66.168 82.2648C66.3835 82.4083 73.3247 81.0614 73.3247 81.0614L73.4794 82.3933L73.8768 84.1888L73.6465 82.881L67.3414 87.7384L67.4711 88.2977L67.3915 88.7091L67.4944 88.7818L71.1817 79.1767L73.0257 78.6364L70.3385 79.3353C70.3385 79.3353 66.997 87.1992 66.9929 87.2051L66.5867 88.8059L66.0323 88.8756L70.7993 83.2428L66.9929 87.2051L67.8533 87.4551ZM76.46 115.903C77.7415 115.697 78.5982 114.485 78.3652 113.204C78.2888 112.774 78.0483 112.397 77.6879 112.142C77.3296 111.889 76.8938 111.788 76.4609 111.858C75.9293 111.944 75.42 111.584 75.3236 111.054L72.7585 96.9513C72.6392 96.2958 72.5262 95.6357 72.42 94.9746L63.7078 95.9041C63.8739 96.7112 64.0372 97.5222 64.1849 98.3339L66.5752 111.475L71.7215 110.644C72.2532 110.559 72.7645 110.92 72.8609 111.45C72.9559 111.982 72.6029 112.481 72.0712 112.567L65.9672 113.552C65.9638 113.553 65.9638 113.553 65.9603 113.554C65.5275 113.623 65.1522 113.855 64.9039 114.207C64.6541 114.56 64.562 114.989 64.6405 115.42C64.7522 116.044 65.1018 116.587 65.6192 116.953C66.1405 117.322 66.7692 117.47 67.3943 117.367L76.46 115.903ZM57.9529 77.072L71.1304 74.6051C71.1407 74.3726 71.1456 74.1393 71.1546 73.9089C71.2799 70.9814 71.2713 68.0214 71.1371 65.0852L71.1171 65.1006C69.3468 66.6994 67.2922 67.8633 65.1029 68.5856L65.8829 69.3443L64.525 70.7225L63.5447 69.769L62.8909 71.4112L61.0681 70.6671L61.5902 69.3521C59.3272 69.6022 57.0058 69.4053 54.7674 68.7493C55.365 70.5304 56.0176 72.3148 56.7209 74.0788C56.999 74.7786 57.2775 75.4608 57.5532 76.1086C57.6977 76.4508 57.8293 76.7685 57.9529 77.072ZM70.9859 62.566C70.9873 62.564 70.9873 62.564 70.9907 62.5635C70.8047 59.8628 70.5086 57.1258 70.1012 54.4137C69.9436 53.3641 69.7704 52.3152 69.5857 51.2996L68.9139 47.6163L64.8785 47.0424L65.2901 48.1769L63.4491 48.8081L62.9164 47.3452L61.6542 48.2081L60.5213 46.5992L60.7367 46.4525L55.3632 45.6874L50.0374 48.7623L51.0412 54.2905C51.3278 55.8665 51.6557 57.4569 52.0153 59.0194C52.5957 61.5252 53.2747 64.0238 54.0296 66.4577C56.3302 67.3502 58.7684 67.668 61.1418 67.4369L60.3852 66.7007L61.743 65.3224L62.7909 66.3384L63.4056 64.7899L65.2304 65.5355L64.7967 66.6229C66.6088 65.9772 68.3083 64.9825 69.785 63.6497L70.9859 62.566ZM71.6622 51.8471C72.1438 51.1103 72.2284 50.1963 71.8704 49.366C71.6808 48.9212 71.3865 48.5474 71.0178 48.266L71.5127 50.9867C71.5624 51.2708 71.6115 51.56 71.6622 51.8471ZM65.9796 45.2372L68.5494 45.6037L67.3095 38.7867L58.0851 44.1135L61.9408 44.6639L61.5026 43.4602L63.3437 42.8291L63.8796 44.3001L64.8534 43.6359L65.9796 45.2372ZM50.5278 63.3398C50.6777 64.0673 51.0627 64.7184 51.6167 65.1988C51.2693 64.012 50.9438 62.8111 50.6368 61.6055C50.4474 62.1553 50.4045 62.7498 50.5278 63.3398ZM68.0824 32.1376L68.5466 34.6797C68.625 34.3296 68.6473 33.9606 68.6026 33.5797C68.5403 33.0444 68.3603 32.556 68.0824 32.1376ZM54.9338 43.6641L66.9345 36.7336L65.3516 28.0315L58.9512 27.1176L54.0176 29.9666L53.6416 31.7282L52.3698 31.4389L52.2376 32.7661L50.2878 32.539L50.3333 32.0946L47.3207 33.8362L48.5834 40.7876C48.5885 40.806 48.5936 40.8245 48.5967 40.8414L48.9536 42.8134L54.9338 43.6641ZM49.0169 54.0791L48.3393 50.3443C48.0978 50.8395 47.9891 51.399 48.0368 51.9892C48.1002 52.8092 48.4517 53.5375 49.0169 54.0791ZM49.6635 46.7075L52.2096 45.237L49.3198 44.8278L49.4143 45.3475C49.4194 45.3659 49.4231 45.3863 49.4262 45.4033L49.6635 46.7075ZM64.9853 26.0173L64.8396 25.207L63.8072 24.3143L61.6752 25.5449L64.9853 26.0173ZM65.3692 17.211L65.8313 19.7516C65.9097 19.4016 65.9321 19.0326 65.8873 18.6517C65.8249 18.1166 65.645 17.628 65.3692 17.211ZM64.2191 21.8058L63.012 15.1601C62.2947 11.2166 58.4922 8.52834 54.5333 9.16584L50.3433 9.84416C46.3884 10.4845 43.7529 14.2124 44.4681 18.1544L45.3899 23.2221L47.2215 23.484L46.6528 22.3539L48.4026 21.5102L48.8158 22.335L49.29 21.9333L50.5814 23.4205L50.0361 23.8844L58.5237 25.0959L62.2334 22.9533L61.4258 22.2551L62.6974 20.798L64.0048 21.9295L64.2191 21.8058ZM52.6676 28.4767L55.7996 26.6686L49.8696 25.8238L48.6875 26.394L48.2847 25.5972L48.0631 25.5648L47.0683 26.4125L46.0857 25.2827L45.7563 25.2363L46.9468 31.7815L49.1022 30.5349L49.4744 28.7913L50.6379 29.0545L50.75 27.935L52.6984 28.1641L52.6676 28.4767ZM46.3016 39.1511L45.6226 35.4183C45.3826 35.9115 45.2738 36.471 45.3201 37.0632C45.3849 37.8812 45.7366 38.6093 46.3016 39.1511ZM43.2093 22.13L42.9453 20.6885C42.8829 21.0202 42.9003 21.367 43.0143 21.714C43.0645 21.8652 43.1314 22.001 43.2093 22.13Z" fill="black"/>
<defs>
<linearGradient id="paint0_linear_6_31" x1="75.3519" y1="16.544" x2="41.9639" y2="63.7707" gradientUnits="userSpaceOnUse">
<stop stop-color="#DA9632"/>
<stop offset="0.1789" stop-color="#CA892E"/>
<stop offset="0.5298" stop-color="#9F6923"/>
<stop offset="0.9844" stop-color="#603813"/>
</linearGradient>
<radialGradient id="paint1_radial_6_31" cx="0" cy="0" r="1" gradientUnits="userSpaceOnUse" gradientTransform="translate(56.7489 14.541) rotate(35.2593) scale(9.0795 8.90118)">
<stop stop-color="white"/>
<stop offset="0.1265" stop-color="white" stop-opacity="0.8735"/>
<stop offset="1" stop-color="white" stop-opacity="0"/>
</radialGradient>
<linearGradient id="paint2_linear_6_31" x1="63.2995" y1="112.596" x2="77.0658" y2="93.1242" gradientUnits="userSpaceOnUse">
<stop stop-color="#FBB03B"/>
<stop offset="0.1207" stop-color="#F4AA39"/>
<stop offset="0.2996" stop-color="#E09B34"/>
<stop offset="0.5145" stop-color="#BF812B"/>
<stop offset="0.7552" stop-color="#925F20"/>
<stop offset="0.9844" stop-color="#603813"/>
</linearGradient>
</defs>
</svg>
